<?xml version="1.0" encoding="UTF-8" standalone="no" ?>
<!DOCTYPE svg PUBLIC "-//W3C//DTD SVG 1.1//EN" "http://www.w3.org/Graphics/SVG/1.1/DTD/svg11.dtd">
<svg xmlns="http://www.w3.org/2000/svg" xmlns:xlink="http://www.w3.org/1999/xlink" version="1.1" width="1280" height="1024" viewBox="0 0 1280 1024" xml:space="preserve">
<desc>Created with Fabric.js 5.3.0</desc>
<defs>
</defs>
<g transform="matrix(1 0 0 1 640 512)" id="background-logo"  >
<rect style="stroke: none; stroke-width: 0; stroke-dasharray: none; stroke-linecap: butt; stroke-dashoffset: 0; stroke-linejoin: miter; stroke-miterlimit: 4; fill: rgb(255,255,255); fill-opacity: 0; fill-rule: nonzero; opacity: 1;"  paint-order="stroke"  x="-640" y="-512" rx="0" ry="0" width="1280" height="1024" />
</g>
<g transform="matrix(1.9211538461538462 0 0 1.9211538461538462 640 415.2851170111211)" id="logo-logo"  >
<g style=""  paint-order="stroke"   >
		<g transform="matrix(0.8344897203358166 0 0 -0.8344897203358166 -39.23562042588918 44.42214093572042)"  >
<path style="stroke: none; stroke-width: 1; stroke-dasharray: none; stroke-linecap: butt; stroke-dashoffset: 0; stroke-linejoin: miter; stroke-miterlimit: 4; fill: rgb(220,179,96); fill-rule: nonzero; opacity: 1;"  paint-order="stroke"  transform=" translate(-50.8675, 41.747)" d="M 0 0 L 0 -26.369 L 101.735 -83.494 L 101.735 -57.123999999999995 z" stroke-linecap="round" />
</g>
		<g transform="matrix(0.8344897203358166 0 0 -0.8344897203358166 0 -11.385110152485623)"  >
<path style="stroke: none; stroke-width: 1; stroke-dasharray: none; stroke-linecap: butt; stroke-dashoffset: 0; stroke-linejoin: miter; stroke-miterlimit: 4; fill: rgb(220,179,96); fill-rule: nonzero; opacity: 1;"  paint-order="stroke"  transform=" translate(97.885, -6.788500000000013)" d="M 0 0 L 0 88.125 L -75.507 88.125 L -33.934000000000005 65.132 L -22.993000000000002 65.132 L -22.993000000000002 38.845 L -112.78999999999999 88.125 L -195.76999999999998 88.125 L -195.76999999999998 55.576 L -42.171 -27.849 L -55.133 -45.835 L -195.77 29.485 L -195.77 3.403 L -50.22 -74.54799999999999 L -8.68 -19.873999999999988 L -165.19 65.132 L -118.684 65.132 z" stroke-linecap="round" />
</g>
</g>
</g>
<g transform="matrix(1.9211538461538462 0 0 1.9211538461538462 641.5148298076921 644.4406364415747)" id="text-logo"  >
<g style=""  paint-order="stroke"   >
		<g transform="matrix(1 0 0 1 0 0)" id="text-logo-path-0"  >
<path style="stroke: none; stroke-width: 0; stroke-dasharray: none; stroke-linecap: butt; stroke-dashoffset: 0; stroke-linejoin: miter; stroke-miterlimit: 4; fill: rgb(220,179,96); fill-rule: nonzero; opacity: 1;"  paint-order="stroke"  transform=" translate(-247.63, 13.3)" d="M 2.89 -26.6 L 2.89 0 L 8.97 0 L 8.97 -10.07 L 20.37 -10.07 L 20.37 0 L 26.45 0 L 26.45 -26.6 L 20.37 -26.6 L 20.37 -15.77 L 8.97 -15.77 L 8.97 -26.6 Z M 59.96 0.61 C 67.98 0.61 73.83 -4.9 73.83 -13.26 C 73.83 -21.36 68.36 -27.21 59.96 -27.21 C 51.95 -27.21 46.09 -21.66 46.09 -13.26 C 46.09 -5.24 51.6 0.61 59.96 0.61 Z M 52.44 -13.26 C 52.44 -17.67 55.4 -21.2 59.96 -21.2 C 64.3 -21.2 67.49 -17.78 67.49 -13.26 C 67.49 -8.93 64.49 -5.4 59.96 -5.4 C 55.63 -5.4 52.44 -8.78 52.44 -13.26 Z M 93.48 -26.6 L 93.48 0 L 99.56 0 L 99.56 -13.98 L 105.87 0 L 112.48 0 L 118.79 -13.98 L 118.79 0 L 124.87 0 L 124.87 -26.6 L 118.41 -26.6 L 109.17 -6.76 L 99.94 -26.6 Z M 146.15 -26.6 L 146.15 0 L 165.83 0 L 165.83 -5.7 L 152.23 -5.7 L 152.23 -10.45 L 163.17 -10.45 L 163.17 -15.77 L 152.23 -15.77 L 152.23 -20.9 L 165.83 -20.9 L 165.83 -26.6 Z M 196.27 -27.21 C 190.15 -27.21 185.33 -23.56 185.33 -18.66 C 185.33 -12.69 192.39 -11.21 196.42 -10.26 C 198.93 -9.65 201.17 -9.08 201.17 -7.37 C 201.17 -6.23 200.11 -5.47 197.22 -5.47 C 193.19 -5.47 191.94 -6.84 190.99 -9.12 L 185.25 -6.95 C 186.31 -3.27 189.92 0.61 196.88 0.61 C 203.15 0.61 207.63 -2.58 207.63 -7.71 C 207.63 -13.64 201.67 -15.09 197.45 -16.19 C 193.65 -17.18 191.79 -17.67 191.79 -18.96 C 191.79 -20.52 194.26 -21.13 196.19 -21.13 C 198.55 -21.13 200.03 -19.95 200.41 -18.85 L 206.42 -21.09 C 205.16 -24.32 201.7 -27.21 196.27 -27.21 Z M 248.6 -26.6 L 225.07 -26.6 L 225.07 -20.9 L 233.78 -20.9 L 233.78 0 L 239.86 0 L 239.86 -20.9 L 248.6 -20.9 Z M 261.55 0 L 268.2 0 L 269.88 -3.91 L 282.68 -3.91 L 284.35 0 L 291 0 L 279.6 -26.6 L 272.95 -26.6 Z M 272.16 -9.23 L 276.3 -18.85 L 280.4 -9.23 Z M 310.76 -26.6 L 310.76 0 L 316.84 0 L 316.84 -9.31 L 327.79 -9.31 L 327.79 -14.63 L 316.84 -14.63 L 316.84 -20.9 L 330.45 -20.9 L 330.45 -26.6 Z M 350.85 -26.6 L 350.85 0 L 356.93 0 L 356.93 -9.31 L 367.88 -9.31 L 367.88 -14.63 L 356.93 -14.63 L 356.93 -20.9 L 370.54 -20.9 L 370.54 -26.6 Z M 392.01 -26.6 L 392.01 -20.9 L 401.66 -20.9 L 395.2 -15.88 L 396.64 -11.89 C 401.13 -11.89 403.56 -11.48 403.56 -8.36 C 403.56 -6.54 401.93 -5.4 399.84 -5.4 C 397.97 -5.4 396.3 -6.35 395.88 -8.25 L 390.03 -5.97 C 391.29 -2.32 394.71 0.61 399.84 0.61 C 406.6 0.61 409.94 -3.04 409.94 -8.17 C 409.94 -12.81 406.79 -14.9 402.76 -15.62 L 409.07 -21.32 L 409.07 -26.6 Z M 439.89 -27.21 C 431.19 -27.21 428.41 -19.46 428.41 -12.46 C 428.41 -3.88 433.12 0.61 439.2 0.61 C 444.6 0.61 449.08 -2.96 449.08 -9.2 C 449.08 -15.28 444.33 -18.24 440.23 -18.24 C 436.92 -18.24 435.48 -16.68 434.53 -15.62 C 435.29 -18.54 436.39 -21.39 440.23 -21.39 C 441.9 -21.39 443.27 -20.82 444.49 -20.18 L 448.7 -24.28 C 447.68 -24.97 445.13 -27.21 439.89 -27.21 Z M 434.99 -9.27 C 434.99 -11.48 436.66 -12.92 438.82 -12.92 C 440.99 -12.92 442.7 -11.48 442.7 -9.27 C 442.7 -7.03 440.99 -5.4 438.82 -5.4 C 436.62 -5.4 434.99 -7.03 434.99 -9.27 Z M 479.98 0.61 C 487.16 0.61 492.37 -4.9 492.37 -13.26 C 492.37 -21.36 487.5 -27.21 479.98 -27.21 C 472.83 -27.21 467.59 -21.66 467.59 -13.26 C 467.59 -5.24 472.53 0.61 479.98 0.61 Z M 473.97 -13.26 C 473.97 -17.67 476.33 -21.2 479.98 -21.2 C 483.44 -21.2 485.98 -17.78 485.98 -13.26 C 485.98 -8.93 483.63 -5.4 479.98 -5.4 C 476.52 -5.4 473.97 -8.78 473.97 -13.26 Z" stroke-linecap="round" />
</g>
</g>
</g>
<g transform="matrix(1.9211538461538462 0 0 1.9211538461538462 639.3970256083204 718.8025078261902)" id="tagline-3f41a7dc-3fe8-4f3a-a30c-95b4516446a6-logo"  >
<g style=""  paint-order="stroke"   >
		<g transform="matrix(1 0 0 1 0 0)" id="tagline-3f41a7dc-3fe8-4f3a-a30c-95b4516446a6-logo-path-0"  >
<path style="stroke: none; stroke-width: 0; stroke-dasharray: none; stroke-linecap: butt; stroke-dashoffset: 0; stroke-linejoin: miter; stroke-miterlimit: 4; fill: rgb(220,179,96); fill-rule: nonzero; opacity: 1;"  paint-order="stroke"  transform=" translate(-244.79999999999998, 10.5)" d="M 2.4 0 L 14.31 0 L 14.61 -2.7 L 5.7 -2.7 L 5.7 -21 L 1.5 -21 L 1.2 -18.3 L 2.4 -18.3 Z M 33.81 0 L 37.11 0 L 37.11 -21 L 32.91 -21 L 32.61 -18.3 L 33.81 -18.3 Z M 56.31 0 L 59.61 0 L 59.61 -8.85 L 66.96 -8.85 L 67.26 -11.55 L 59.61 -11.55 L 59.61 -18.3 L 68.82 -18.3 L 69.12 -21 L 55.41 -21 L 55.11 -18.3 L 56.31 -18.3 Z M 88.32 0 L 100.83 0 L 101.13 -2.7 L 91.62 -2.7 L 91.62 -9.15 L 98.97 -9.15 L 99.27 -11.85 L 91.62 -11.85 L 91.62 -18.3 L 100.53 -18.3 L 100.83 -21 L 87.42 -21 L 87.12 -18.3 L 88.32 -18.3 Z M 147.3 0.18 C 151.77 0.18 154.83 -2.76 154.83 -6.42 C 154.83 -11.94 144.9 -11.88 144.9 -15.48 C 144.9 -17.52 146.94 -18.18 147.96 -18.18 C 149.91 -18.18 150.9 -17.28 151.53 -16.47 L 153.39 -19.11 C 152.16 -20.19 150.39 -21.18 148.23 -21.18 C 143.97 -21.18 141.6 -18.63 141.6 -15.72 C 141.6 -9.21 151.53 -9.63 151.53 -6.03 C 151.53 -4.11 149.67 -2.82 147.39 -2.82 C 145.41 -2.82 143.37 -4.32 142.5 -5.34 L 140.73 -2.94 C 142.53 -0.87 144.69 0.18 147.3 0.18 Z M 173.43 0 L 176.73 0 L 176.73 -21 L 172.53 -21 L 172.23 -18.3 L 173.43 -18.3 Z M 195.93 0 L 199.23 0 L 199.23 -16.44 L 206.64 -2.37 L 214.08 -16.47 L 214.08 0 L 217.38 0 L 217.38 -21 L 213.18 -21 L 206.67 -8.64 L 200.13 -21 L 195.03 -21 L 194.73 -18.3 L 195.93 -18.3 Z M 244.23 -21 L 235.68 -21 L 235.38 -18.3 L 236.58 -18.3 L 236.58 0 L 239.88 0 L 239.88 -8.55 L 244.23 -8.55 C 248.01 -8.55 250.41 -10.8 250.41 -14.73 C 250.41 -18.48 248.07 -21 244.23 -21 Z M 239.88 -11.25 L 239.88 -18.3 L 243.6 -18.3 C 245.76 -18.3 247.11 -17.01 247.11 -14.76 C 247.11 -12.66 245.79 -11.25 243.6 -11.25 Z M 269.61 0 L 281.52 0 L 281.82 -2.7 L 272.91 -2.7 L 272.91 -21 L 268.71 -21 L 268.41 -18.3 L 269.61 -18.3 Z M 301.02 0 L 304.32 0 L 304.32 -21 L 300.12 -21 L 299.82 -18.3 L 301.02 -18.3 Z M 323.52 0 L 326.82 0 L 326.82 -8.85 L 334.17 -8.85 L 334.47 -11.55 L 326.82 -11.55 L 326.82 -18.3 L 336.03 -18.3 L 336.33 -21 L 322.62 -21 L 322.32 -18.3 L 323.52 -18.3 Z M 355.53 0 L 358.83 0 L 358.83 -21 L 354.63 -21 L 354.33 -18.3 L 355.53 -18.3 Z M 378.03 0 L 390.54 0 L 390.84 -2.7 L 381.33 -2.7 L 381.33 -9.15 L 388.68 -9.15 L 388.98 -11.85 L 381.33 -11.85 L 381.33 -18.3 L 390.24 -18.3 L 390.54 -21 L 377.13 -21 L 376.83 -18.3 L 378.03 -18.3 Z M 410.04 0 L 415.35 0 C 421.86 0 425.85 -3.75 425.85 -10.5 C 425.85 -17.01 422.1 -21 415.35 -21 L 409.14 -21 L 408.84 -18.3 L 410.04 -18.3 Z M 413.34 -2.7 L 413.34 -18.3 L 414.75 -18.3 C 419.58 -18.3 422.55 -15.51 422.55 -10.5 C 422.55 -5.67 419.76 -2.7 414.75 -2.7 Z M 444.99 0.18 C 445.92 0.18 446.7 -0.63 446.7 -1.56 C 446.7 -2.49 445.92 -3.27 444.99 -3.27 C 444.06 -3.27 443.25 -2.49 443.25 -1.56 C 443.25 -0.63 444.06 0.18 444.99 0.18 Z M 465.84 0.18 C 466.77 0.18 467.55 -0.63 467.55 -1.56 C 467.55 -2.49 466.77 -3.27 465.84 -3.27 C 464.91 -3.27 464.1 -2.49 464.1 -1.56 C 464.1 -0.63 464.91 0.18 465.84 0.18 Z M 486.69 0.18 C 487.62 0.18 488.4 -0.63 488.4 -1.56 C 488.4 -2.49 487.62 -3.27 486.69 -3.27 C 485.76 -3.27 484.95 -2.49 484.95 -1.56 C 484.95 -0.63 485.76 0.18 486.69 0.18 Z" stroke-linecap="round" />
</g>
</g>
</g>
</svg>